<svg xmlns="http://www.w3.org/2000/svg" viewBox="0 0 184 196" role="img" aria-label="Argyle Building Company">
  <circle cx="107.5" cy="100.5" r="72.5" fill="#ffffff" />
  <path
    fill="#13294b"
    fill-rule="evenodd"
    d="M 98.500 28.626 C 97.400 28.842, 94.025 29.501, 91 30.089 C 83.697 31.509, 68.895 38.780, 61.758 44.453 C 51.157 52.879, 42.423 66.241, 37.870 81 C 35.137 89.859, 34.627 107.885, 36.851 117 C 39.182 126.556, 50.554 147.967, 52.253 146 C 53.480 144.579, 114 29.966, 114 29.063 C 114 28.042, 103.037 27.733, 98.500 28.626 M 150.058 44.121 C 150.206 50.136, 165.615 141.304, 166.500 141.396 C 168.141 141.567, 176.566 123.736, 178.088 116.870 C 179.854 108.904, 179.875 91.277, 178.128 84 C 174.973 70.861, 164.200 53.365, 154.250 45.220 C 150.096 41.820, 150.001 41.795, 150.058 44.121 M 104 94.779 C 66.462 160.799, 66.770 160.227, 68.208 161.244 C 68.918 161.748, 73.100 163.887, 77.500 165.998 C 99.551 176.580, 123.655 175.065, 145.816 161.705 L 151.132 158.500 120.129 158 L 89.127 157.500 94.277 148.604 L 99.428 139.709 118.809 140.271 L 138.191 140.832 137.631 137.666 C 137.323 135.925, 134.788 116.746, 131.998 95.046 C 129.209 73.347, 126.830 55.506, 126.713 55.400 C 126.596 55.294, 116.375 73.015, 104 94.779"
  />
</svg>
