<svg xmlns="http://www.w3.org/2000/svg" width="600" height="200" viewBox="0 0 600 200" role="img" aria-label="Argyle Building Company">
  <circle cx="109.5" cy="102.5" r="72.5" fill="#ffffff" />
  <path d="M 98.500 28.626 C 97.400 28.842, 94.025 29.501, 91 30.089 C 83.697 31.509, 68.895 38.780, 61.758 44.453 C 51.157 52.879, 42.423 66.241, 37.870 81 C 35.137 89.859, 34.627 107.885, 36.851 117 C 39.182 126.556, 50.554 147.967, 52.253 146 C 53.480 144.579, 114 29.966, 114 29.063 C 114 28.042, 103.037 27.733, 98.500 28.626 M 150.058 44.121 C 150.206 50.136, 165.615 141.304, 166.500 141.396 C 168.141 141.567, 176.566 123.736, 178.088 116.870 C 179.854 108.904, 179.875 91.277, 178.128 84 C 174.973 70.861, 164.200 53.365, 154.250 45.220 C 150.096 41.820, 150.001 41.795, 150.058 44.121 M 104 94.779 C 66.462 160.799, 66.770 160.227, 68.208 161.244 C 68.918 161.748, 73.100 163.887, 77.500 165.998 C 99.551 176.580, 123.655 175.065, 145.816 161.705 L 151.132 158.500 120.129 158 L 89.127 157.500 94.277 148.604 L 99.428 139.709 118.809 140.271 L 138.191 140.832 137.631 137.666 C 137.323 135.925, 134.788 116.746, 131.998 95.046 C 129.209 73.347, 126.830 55.506, 126.713 55.400 C 126.596 55.294, 116.375 73.015, 104 94.779" stroke="none" fill="#13294b" transform="translate(2,2)" fill-rule="evenodd"/>
  <path d="M36.20-65L1.20 0L15.10 0L42-49.10L48-11.30L28.50-11.30L22.30 0L60.50 0Q60.70 0 61.55-1Q62.40-2 62.50-2.80L62.50-4.20L52.50-65 M80.32 0L67.12 0L81.02-65L111.72-65Q120.52-65 125.17-61.65Q129.82-58.30 129.82-50.50Q129.82-48.80 129.67-47.25Q129.52-45.70 129.32-44.30Q128.52-40.40 126.72-37.20Q124.92-34 122.37-31.55Q119.82-29.10 116.77-27.30Q113.72-25.50 110.42-24.50L121.42 0L108.12 0L94.12-32.50Q95.62-33.60 96.22-33.80Q96.82-34 97.62-34Q104.72-34 109.62-36.50Q114.52-39 116.32-45L116.32-45.10Q116.62-46.30 116.62-47.40Q116.62-49.30 115.87-50.50Q115.12-51.70 114.07-52.40Q113.02-53.10 111.97-53.35Q110.92-53.60 110.42-53.60L91.72-53.60 M146.73-24.30Q146.73-17.50 150.43-14.45Q154.13-11.40 160.13-11.40L174.83-11.40L178.03-26.30L163.23-26.30L167.53-37.60L185.83-37.60Q189.03-37.60 190.43-35.55Q191.83-33.50 191.83-30.90Q191.83-29.70 191.73-29.20Q191.63-29.10 191.63-28.90Q191.63-28.80 191.63-28.80L187.23-7.80Q186.53-4.60 184.13-2.30Q181.73 0 178.73 0L154.03 0Q150.23 0 146.53-1.25Q142.83-2.50 139.93-5.20Q137.03-7.90 135.18-12Q133.33-16.10 133.33-21.80Q133.33-23.90 133.58-26.05Q133.83-28.20 134.33-30.30L134.33-30.20L135.43-35.20Q137.13-43.10 140.58-48.75Q144.03-54.40 148.38-58Q152.73-61.60 157.58-63.30Q162.43-65 166.93-65L194.23-65L191.83-53.60L169.53-53.60Q166.03-53.60 162.73-52.60Q159.43-51.60 156.58-49.30Q153.73-47 151.58-43.35Q149.43-39.70 148.33-34.40L147.53-30.90Q147.13-28.90 146.93-27.30Q146.73-25.70 146.73-24.30 M214.45 0L227.55 0L232.75-25L265.95-65L250.45-65L228.85-38.80L218.25-65L203.95-65L219.75-25.20 M271.77-11.40L283.07-65L270.07-65L256.37 0L301.37 0L305.27-11.40 M329.68-27.60L357.88-27.60L361.78-38.90L332.08-38.90L335.18-53.60L367.58-53.60L371.38-65L324.48-65L310.68 0L356.18 0L359.98-11.40L326.28-11.40" fill="#13294b" transform="translate(196,119)" />
  <path d="M5.50-19L1.46 0L10.35 0Q11.96 0 13.21-0.31Q14.47-0.61 15.42-1.30Q16.37-1.99 17-3.11Q17.63-4.24 17.98-5.88Q18.06-6.26 18.09-6.61Q18.12-6.96 18.12-7.28Q18.12-9.41 16.60-10.67Q16.84-11.05 17.13-11.63Q17.42-12.22 17.63-13.12Q17.71-13.53 17.74-13.90Q17.77-14.26 17.77-14.59Q17.77-15.73 17.36-16.56Q16.95-17.39 16.22-17.93Q15.49-18.47 14.53-18.74Q13.56-19 12.45-19L5.50-19M11.63-12.25L11.34-12.19L9.82-9.50L10.49-9.50Q12.72-9.50 13.74-8.74Q14.76-7.98 14.76-6.66Q14.76-6.26 14.67-5.82L14.67-5.76Q14.47-4.82 14-4.25Q13.53-3.68 12.99-3.36Q12.45-3.04 11.97-2.92Q11.49-2.81 11.28-2.81L5.35-2.81L8.21-16.19L12.25-16.19Q12.42-16.19 12.79-16.11Q13.15-16.02 13.52-15.77Q13.88-15.52 14.16-15.10Q14.44-14.67 14.44-14Q14.44-13.62 14.35-13.24Q14.29-12.92 14.21-12.60Q14.12-12.28 13.94-11.96Q13.86-12.04 13.59-12.10Q13.33-12.16 12.98-12.19Q12.63-12.22 12.26-12.23Q11.90-12.25 11.63-12.25 M44.14-9.06L46.24-19L49.55-19L47.38-8.74Q46.89-6.40 45.86-4.75Q44.84-3.10 43.54-2.05Q42.24-0.99 40.82-0.50Q39.40 0 38.12 0L35.84 0Q34.90 0 33.88-0.37Q32.85-0.73 32.01-1.51Q31.16-2.28 30.60-3.49Q30.05-4.71 30.05-6.37Q30.05-7.45 30.31-8.74L32.47-19L35.81-19L33.70-9.06Q33.44-7.78 33.44-6.78Q33.44-4.68 34.49-3.74Q35.54-2.81 37.47-2.81L37.65-2.81Q39.99-2.81 41.71-4.27Q43.44-5.73 44.14-9.06 M61.30-19L75.94-19L75.36-16.19L69.66-16.19L66.79-2.81L72.46-2.81L71.88 0L57.23 0L57.82-2.81L63.49-2.81L66.35-16.19L60.71-16.19 M87.66-19L90.96-19L87.51-2.81L97.72-2.81L96.75 0L83.63 0 M128.12-10.26L127.79-8.74Q127.30-6.40 126.38-4.75Q125.46-3.10 124.24-2.05Q123.03-0.99 121.57-0.50Q120.11 0 118.53 0L108.85 0L112.89-19L122.56-19Q123.61-19 124.65-18.63Q125.69-18.27 126.52-17.51Q127.36-16.75 127.87-15.57Q128.38-14.38 128.38-12.72Q128.38-11.60 128.12-10.26M124.55-9.06L124.78-10.14Q125.02-11.40 125.02-12.07Q125.02-13.18 124.68-13.97Q124.34-14.76 123.75-15.26Q123.15-15.76 122.34-15.97Q121.54-16.19 120.60-16.19L115.60-16.19L112.74-2.81L117.74-2.81Q118.91-2.81 119.97-3.16Q121.04-3.51 121.95-4.27Q122.85-5.03 123.53-6.21Q124.20-7.40 124.55-9.06 M141.71-19L156.35-19L155.77-16.19L150.07-16.19L147.20-2.81L152.87-2.81L152.29 0L137.64 0L138.23-2.81L143.90-2.81L146.76-16.19L141.12-16.19 M180.61-19L183.92-19L179.88 0L176.02 0L170.26-13.71L167.34 0L164.04 0L168.07-19L171.84-19L177.60-4.88 M203.41-10.73L202.39-7.95L206.80-7.95L205.69-2.81L200.96-2.81Q199.03-2.81 197.81-3.80Q196.60-4.79 196.60-7.02Q196.60-7.48 196.66-7.98Q196.72-8.48 196.83-9.06L197.07-10.14Q197.42-11.81 198.11-12.96Q198.79-14.12 199.68-14.83Q200.58-15.55 201.64-15.87Q202.71-16.19 203.82-16.19L210.31-16.19L210.89-19L203.03-19Q201.72-19 200.28-18.50Q198.85-18.01 197.58-16.95Q196.31-15.90 195.30-14.24Q194.29-12.57 193.79-10.26L193.47-8.74Q193.33-8.10 193.25-7.47Q193.18-6.84 193.18-6.26Q193.18-4.62 193.71-3.43Q194.23-2.25 195.08-1.49Q195.93-0.73 196.98-0.37Q198.03 0 199.11 0L206.60 0Q207.42 0 208.04-0.61Q208.67-1.23 208.85-2.10L210.19-8.45Q210.22-8.59 210.24-8.73Q210.25-8.86 210.25-9Q210.25-9.68 209.89-10.20Q209.52-10.73 208.76-10.73  M246.70-10.14Q246.55-9.44 246.47-8.96Q246.38-8.48 246.32-8.13Q246.26-7.78 246.25-7.51Q246.23-7.25 246.23-7.02Q246.23-4.79 247.45-3.80Q248.66-2.81 250.59-2.81L257.08-2.81L256.49 0L248.63 0Q247.69 0 246.67-0.37Q245.65-0.73 244.80-1.51Q243.95-2.28 243.40-3.49Q242.84-4.71 242.84-6.37Q242.84-7.45 243.11-8.74L243.43-10.26Q243.92-12.57 244.93-14.24Q245.94-15.90 247.21-16.95Q248.48-18.01 249.92-18.50Q251.35-19 252.66-19L260.53-19L259.94-16.19L253.45-16.19Q252.34-16.19 251.28-15.87Q250.21-15.55 249.32-14.83Q248.43-14.12 247.74-12.96Q247.05-11.81 246.70-10.14 M278.91 0L276.05 0Q275 0 273.91-0.44Q272.83-0.88 271.93-1.74Q271.02-2.60 270.45-3.87Q269.88-5.14 269.88-6.81Q269.88-7.98 270.08-8.83L270.38-10.17Q270.87-12.48 271.96-14.16Q273.04-15.84 274.38-16.91Q275.73-17.98 277.22-18.49Q278.71-19 280.05-19L282.92-19Q283.88-19 284.98-18.59Q286.07-18.18 286.99-17.33Q287.92-16.49 288.51-15.21Q289.11-13.94 289.11-12.25Q289.11-11.78 289.06-11.27Q289-10.76 288.88-10.17L288.59-8.83Q288.09-6.49 286.99-4.82Q285.90-3.16 284.52-2.09Q283.15-1.02 281.66-0.51Q280.17 0 278.91 0M285.37-9.06L285.61-10.14Q285.81-10.93 285.81-11.98Q285.81-13.12 285.46-13.93Q285.11-14.73 284.50-15.23Q283.88-15.73 283.06-15.96Q282.24-16.19 281.31-16.19L280.72-16.19Q279.61-16.19 278.50-15.87Q277.39-15.55 276.43-14.83Q275.46-14.12 274.73-12.96Q274-11.81 273.65-10.14L273.42-9.06Q273.18-7.72 273.18-7.04Q273.18-4.82 274.41-3.81Q275.64-2.81 277.66-2.81L278.24-2.81Q279.41-2.81 280.53-3.16Q281.66-3.51 282.62-4.27Q283.59-5.03 284.31-6.21Q285.02-7.40 285.37-9.06 M299.02-2.81L302.33-2.81L301.74 0L298.44 0" fill="#13294b" transform="translate(219,152)" />
</svg>
